<svg xmlns="http://www.w3.org/2000/svg" xmlns:xlink="http://www.w3.org/1999/xlink" width="500" zoomAndPan="magnify" viewBox="0 0 375 374.999991" height="500" preserveAspectRatio="xMidYMid meet" version="1.0"><defs><g/><clipPath id="1739c9e0b5"><path d="M 120.933594 102.878906 L 255.886719 102.878906 L 255.886719 221.371094 L 120.933594 221.371094 Z M 120.933594 102.878906 " clip-rule="nonzero"/></clipPath><clipPath id="ff1f48dd5b"><path d="M 230.8125 137 L 270.746094 137 L 270.746094 176.988281 L 230.8125 176.988281 Z M 230.8125 137 " clip-rule="nonzero"/></clipPath></defs><g clip-path="url(#1739c9e0b5)"><path fill="#286c50" d="M 250.867188 180.851562 C 250.8125 180.851562 250.753906 180.851562 250.699219 180.847656 C 249.207031 190.042969 245.730469 198.574219 240.71875 205.976562 C 238.714844 208.941406 236.464844 211.722656 233.996094 214.296875 C 233.03125 215.304688 231.371094 215.085938 230.671875 213.875 C 226.085938 205.929688 218.464844 199.5625 207.246094 196.582031 C 203.226562 195.507812 200.25 192.277344 199.710938 188.316406 L 199.707031 188.289062 C 199.578125 187.347656 199.933594 186.40625 200.640625 185.765625 C 207.070312 179.898438 212.875 170.359375 212.875 159.59375 C 212.875 141.761719 206.792969 127.308594 188.636719 127.308594 C 170.480469 127.308594 164.394531 141.761719 164.394531 159.59375 C 164.394531 170.359375 170.203125 179.898438 176.632812 185.765625 C 177.339844 186.40625 177.695312 187.347656 177.5625 188.289062 L 177.558594 188.316406 C 177.019531 192.277344 174.042969 195.507812 170.027344 196.582031 C 158.808594 199.5625 151.183594 205.929688 146.597656 213.875 C 145.898438 215.085938 144.242188 215.304688 143.273438 214.296875 C 140.808594 211.726562 138.554688 208.941406 136.550781 205.976562 C 136.046875 205.230469 135.550781 204.472656 135.078125 203.699219 C 129.171875 194.105469 125.761719 182.792969 125.761719 170.691406 C 125.761719 162.058594 127.492188 153.828125 130.632812 146.335938 C 134.9375 136.070312 141.875 127.1875 150.601562 120.539062 C 151.503906 119.851562 152.429688 119.183594 153.371094 118.542969 C 153.804688 118.25 154.242188 117.957031 154.683594 117.671875 C 156.550781 116.472656 158.484375 115.367188 160.480469 114.367188 C 161.488281 113.859375 162.511719 113.382812 163.546875 112.925781 C 171.238281 109.574219 179.71875 107.714844 188.636719 107.714844 C 197.558594 107.714844 206.039062 109.578125 213.730469 112.929688 C 214.765625 113.382812 215.789062 113.863281 216.792969 114.371094 C 218.789062 115.371094 220.722656 116.476562 222.582031 117.671875 C 223.027344 117.957031 223.457031 118.242188 223.890625 118.539062 C 224.835938 119.183594 225.765625 119.851562 226.675781 120.546875 C 232.128906 124.703125 236.886719 129.730469 240.734375 135.425781 C 242.226562 134.714844 243.808594 134.160156 245.453125 133.773438 C 242.894531 129.835938 239.902344 126.140625 236.507812 122.738281 C 231.921875 118.144531 226.792969 114.292969 221.265625 111.242188 C 219.03125 110.003906 216.722656 108.898438 214.363281 107.929688 C 212.476562 107.148438 210.550781 106.460938 208.597656 105.859375 C 202.21875 103.898438 195.5 102.878906 188.636719 102.878906 C 181.792969 102.878906 175.070312 103.898438 168.648438 105.882812 C 166.703125 106.484375 164.785156 107.175781 162.898438 107.949219 C 160.542969 108.917969 158.238281 110.027344 155.996094 111.265625 C 154.1875 112.261719 152.425781 113.347656 150.703125 114.515625 C 139.757812 121.945312 131.28125 132.296875 126.183594 144.46875 C 122.699219 152.78125 120.933594 161.605469 120.933594 170.691406 C 120.933594 183.28125 124.402344 195.574219 130.972656 206.238281 C 132.050781 207.996094 133.207031 209.691406 134.4375 211.339844 C 136.234375 213.742188 138.191406 216.019531 140.296875 218.167969 C 142.3125 220.226562 145.078125 221.371094 147.957031 221.371094 L 229.3125 221.371094 C 232.195312 221.371094 234.960938 220.222656 236.980469 218.164062 C 239.089844 216.003906 241.042969 213.722656 242.832031 211.324219 C 249.609375 202.261719 254.027344 191.617188 255.644531 180.367188 C 254.101562 180.683594 252.503906 180.851562 250.867188 180.851562 " fill-opacity="1" fill-rule="nonzero"/></g><path fill="#286c50" d="M 157.785156 137.742188 L 155.542969 137.742188 L 155.542969 127.886719 L 165.378906 127.886719 L 165.378906 130.136719 L 157.785156 130.136719 L 157.785156 137.742188 " fill-opacity="1" fill-rule="nonzero"/><path fill="#286c50" d="M 221.730469 137.742188 L 219.488281 137.742188 L 219.488281 130.136719 L 211.890625 130.136719 L 211.890625 127.886719 L 221.730469 127.886719 L 221.730469 137.742188 " fill-opacity="1" fill-rule="nonzero"/><path fill="#286c50" d="M 221.730469 186.117188 L 211.890625 186.117188 L 211.890625 183.867188 L 219.488281 183.867188 L 219.488281 176.261719 L 221.730469 176.261719 L 221.730469 186.117188 " fill-opacity="1" fill-rule="nonzero"/><path fill="#286c50" d="M 165.378906 186.117188 L 155.542969 186.117188 L 155.542969 176.261719 L 157.785156 176.261719 L 157.785156 183.867188 L 165.378906 183.867188 L 165.378906 186.117188 " fill-opacity="1" fill-rule="nonzero"/><g clip-path="url(#ff1f48dd5b)"><path fill="#286c50" d="M 270.742188 157.003906 C 270.742188 167.996094 261.84375 176.910156 250.867188 176.910156 C 239.890625 176.910156 230.992188 167.996094 230.992188 157.003906 C 230.992188 146.007812 239.890625 137.09375 250.867188 137.09375 C 261.84375 137.09375 270.742188 146.007812 270.742188 157.003906 " fill-opacity="1" fill-rule="nonzero"/></g><path fill="#ffffff" d="M 248.605469 165.621094 L 240.175781 157.179688 L 242.957031 154.394531 L 248.605469 160.050781 L 260.25 148.382812 L 263.03125 151.171875 L 248.605469 165.621094 " fill-opacity="1" fill-rule="nonzero"/><g fill="#286c50" fill-opacity="1"><g transform="translate(52.919528, 254.40492)"><g><path d="M 19.5625 0 L 17.40625 -6.21875 L 8.140625 -6.21875 L 5.96875 0 L 0.875 0 L 9.765625 -24.34375 L 15.765625 -24.34375 L 24.609375 0 Z M 12.765625 -20.59375 L 12.65625 -20.203125 C 12.539062 -19.796875 12.398438 -19.328125 12.234375 -18.796875 C 12.078125 -18.265625 11.09375 -15.347656 9.28125 -10.046875 L 16.265625 -10.046875 L 13.875 -17.046875 L 13.125 -19.390625 Z M 12.765625 -20.59375 "/></g></g></g><g fill="#286c50" fill-opacity="1"><g transform="translate(78.460576, 254.40492)"><g><path d="M 7.046875 -18.6875 L 7.046875 -8.203125 C 7.046875 -4.921875 8.148438 -3.28125 10.359375 -3.28125 C 11.535156 -3.28125 12.484375 -3.78125 13.203125 -4.78125 C 13.921875 -5.789062 14.28125 -7.085938 14.28125 -8.671875 L 14.28125 -18.6875 L 19.140625 -18.6875 L 19.140625 -4.1875 C 19.140625 -2.59375 19.1875 -1.195312 19.28125 0 L 14.640625 0 C 14.503906 -1.65625 14.4375 -2.894531 14.4375 -3.71875 L 14.359375 -3.71875 C 13.710938 -2.300781 12.890625 -1.269531 11.890625 -0.625 C 10.890625 0.0195312 9.707031 0.34375 8.34375 0.34375 C 6.363281 0.34375 4.84375 -0.257812 3.78125 -1.46875 C 2.71875 -2.6875 2.1875 -4.472656 2.1875 -6.828125 L 2.1875 -18.6875 Z M 7.046875 -18.6875 "/></g></g></g><g fill="#286c50" fill-opacity="1"><g transform="translate(100.064262, 254.40492)"><g><path d="M 7.25 0.3125 C 5.820312 0.3125 4.722656 -0.0703125 3.953125 -0.84375 C 3.179688 -1.625 2.796875 -2.804688 2.796875 -4.390625 L 2.796875 -15.40625 L 0.4375 -15.40625 L 0.4375 -18.6875 L 3.046875 -18.6875 L 4.5625 -23.078125 L 7.59375 -23.078125 L 7.59375 -18.6875 L 11.140625 -18.6875 L 11.140625 -15.40625 L 7.59375 -15.40625 L 7.59375 -5.703125 C 7.59375 -4.785156 7.765625 -4.113281 8.109375 -3.6875 C 8.460938 -3.257812 9 -3.046875 9.71875 -3.046875 C 10.101562 -3.046875 10.644531 -3.125 11.34375 -3.28125 L 11.34375 -0.28125 C 10.144531 0.113281 8.78125 0.3125 7.25 0.3125 Z M 7.25 0.3125 "/></g></g></g><g fill="#286c50" fill-opacity="1"><g transform="translate(111.841811, 254.40492)"><g><path d="M 7.25 -14.953125 C 7.90625 -16.378906 8.726562 -17.414062 9.71875 -18.0625 C 10.707031 -18.707031 11.890625 -19.03125 13.265625 -19.03125 C 15.242188 -19.03125 16.765625 -18.421875 17.828125 -17.203125 C 18.890625 -15.984375 19.421875 -14.195312 19.421875 -11.84375 L 19.421875 0 L 14.578125 0 L 14.578125 -10.46875 C 14.578125 -13.75 13.46875 -15.390625 11.25 -15.390625 C 10.070312 -15.390625 9.125 -14.882812 8.40625 -13.875 C 7.6875 -12.875 7.328125 -11.582031 7.328125 -10 L 7.328125 0 L 2.46875 0 L 2.46875 -25.640625 L 7.328125 -25.640625 L 7.328125 -18.640625 C 7.328125 -17.378906 7.28125 -16.148438 7.1875 -14.953125 Z M 7.25 -14.953125 "/></g></g></g><g fill="#286c50" fill-opacity="1"><g transform="translate(133.445497, 254.40492)"><g><path d="M 10.125 0.34375 C 7.3125 0.34375 5.148438 -0.484375 3.640625 -2.140625 C 2.128906 -3.804688 1.375 -6.238281 1.375 -9.4375 C 1.375 -12.519531 2.140625 -14.890625 3.671875 -16.546875 C 5.203125 -18.203125 7.375 -19.03125 10.1875 -19.03125 C 12.875 -19.03125 14.925781 -18.140625 16.34375 -16.359375 C 17.757812 -14.585938 18.46875 -11.984375 18.46875 -8.546875 L 18.46875 -8.40625 L 6.484375 -8.40625 C 6.484375 -6.59375 6.816406 -5.222656 7.484375 -4.296875 C 8.160156 -3.367188 9.117188 -2.90625 10.359375 -2.90625 C 12.078125 -2.90625 13.160156 -3.644531 13.609375 -5.125 L 18.1875 -4.734375 C 16.863281 -1.347656 14.175781 0.34375 10.125 0.34375 Z M 10.125 -15.984375 C 8.976562 -15.984375 8.097656 -15.582031 7.484375 -14.78125 C 6.867188 -13.988281 6.546875 -12.878906 6.515625 -11.453125 L 13.765625 -11.453125 C 13.671875 -12.960938 13.304688 -14.09375 12.671875 -14.84375 C 12.046875 -15.601562 11.195312 -15.984375 10.125 -15.984375 Z M 10.125 -15.984375 "/></g></g></g><g fill="#286c50" fill-opacity="1"><g transform="translate(153.11504, 254.40492)"><g><path d="M 14.578125 0 L 14.578125 -10.484375 C 14.578125 -13.765625 13.46875 -15.40625 11.25 -15.40625 C 10.070312 -15.40625 9.125 -14.898438 8.40625 -13.890625 C 7.6875 -12.890625 7.328125 -11.597656 7.328125 -10.015625 L 7.328125 0 L 2.46875 0 L 2.46875 -14.515625 C 2.46875 -15.515625 2.453125 -16.332031 2.421875 -16.96875 C 2.398438 -17.601562 2.367188 -18.175781 2.328125 -18.6875 L 6.96875 -18.6875 C 7 -18.46875 7.039062 -17.882812 7.09375 -16.9375 C 7.15625 -15.988281 7.1875 -15.332031 7.1875 -14.96875 L 7.25 -14.96875 C 7.90625 -16.40625 8.726562 -17.441406 9.71875 -18.078125 C 10.707031 -18.722656 11.890625 -19.046875 13.265625 -19.046875 C 15.242188 -19.046875 16.765625 -18.4375 17.828125 -17.21875 C 18.890625 -16 19.421875 -14.210938 19.421875 -11.859375 L 19.421875 0 Z M 14.578125 0 "/></g></g></g><g fill="#286c50" fill-opacity="1"><g transform="translate(174.718725, 254.40492)"><g><path d="M 7.25 0.3125 C 5.820312 0.3125 4.722656 -0.0703125 3.953125 -0.84375 C 3.179688 -1.625 2.796875 -2.804688 2.796875 -4.390625 L 2.796875 -15.40625 L 0.4375 -15.40625 L 0.4375 -18.6875 L 3.046875 -18.6875 L 4.5625 -23.078125 L 7.59375 -23.078125 L 7.59375 -18.6875 L 11.140625 -18.6875 L 11.140625 -15.40625 L 7.59375 -15.40625 L 7.59375 -5.703125 C 7.59375 -4.785156 7.765625 -4.113281 8.109375 -3.6875 C 8.460938 -3.257812 9 -3.046875 9.71875 -3.046875 C 10.101562 -3.046875 10.644531 -3.125 11.34375 -3.28125 L 11.34375 -0.28125 C 10.144531 0.113281 8.78125 0.3125 7.25 0.3125 Z M 7.25 0.3125 "/></g></g></g><g fill="#286c50" fill-opacity="1"><g transform="translate(186.496274, 254.40492)"><g><path d="M 2.46875 -22.0625 L 2.46875 -25.640625 L 7.328125 -25.640625 L 7.328125 -22.0625 Z M 2.46875 0 L 2.46875 -18.6875 L 7.328125 -18.6875 L 7.328125 0 Z M 2.46875 0 "/></g></g></g><g fill="#286c50" fill-opacity="1"><g transform="translate(196.322411, 254.40492)"><g><path d="M 8.171875 -15.40625 L 8.171875 0 L 3.328125 0 L 3.328125 -15.40625 L 0.609375 -15.40625 L 0.609375 -18.6875 L 3.328125 -18.6875 L 3.328125 -20.640625 C 3.328125 -22.335938 3.773438 -23.59375 4.671875 -24.40625 C 5.578125 -25.226562 6.945312 -25.640625 8.78125 -25.640625 C 9.6875 -25.640625 10.707031 -25.546875 11.84375 -25.359375 L 11.84375 -22.234375 C 11.375 -22.335938 10.90625 -22.390625 10.4375 -22.390625 C 9.601562 -22.390625 9.015625 -22.222656 8.671875 -21.890625 C 8.335938 -21.566406 8.171875 -20.988281 8.171875 -20.15625 L 8.171875 -18.6875 L 11.84375 -18.6875 L 11.84375 -15.40625 Z M 8.171875 -15.40625 "/></g></g></g><g fill="#286c50" fill-opacity="1"><g transform="translate(208.09996, 254.40492)"><g><path d="M 2.46875 -22.0625 L 2.46875 -25.640625 L 7.328125 -25.640625 L 7.328125 -22.0625 Z M 2.46875 0 L 2.46875 -18.6875 L 7.328125 -18.6875 L 7.328125 0 Z M 2.46875 0 "/></g></g></g><g fill="#286c50" fill-opacity="1"><g transform="translate(217.926097, 254.40492)"><g><path d="M 10.265625 0.34375 C 7.429688 0.34375 5.238281 -0.5 3.6875 -2.1875 C 2.144531 -3.875 1.375 -6.222656 1.375 -9.234375 C 1.375 -12.328125 2.148438 -14.734375 3.703125 -16.453125 C 5.265625 -18.171875 7.472656 -19.03125 10.328125 -19.03125 C 12.523438 -19.03125 14.34375 -18.476562 15.78125 -17.375 C 17.226562 -16.269531 18.132812 -14.742188 18.5 -12.796875 L 13.609375 -12.5625 C 13.472656 -13.507812 13.128906 -14.269531 12.578125 -14.84375 C 12.023438 -15.414062 11.238281 -15.703125 10.21875 -15.703125 C 7.726562 -15.703125 6.484375 -13.613281 6.484375 -9.4375 C 6.484375 -5.125 7.753906 -2.96875 10.296875 -2.96875 C 11.210938 -2.96875 11.984375 -3.257812 12.609375 -3.84375 C 13.234375 -4.425781 13.617188 -5.289062 13.765625 -6.4375 L 18.640625 -6.21875 C 18.460938 -4.9375 18.003906 -3.796875 17.265625 -2.796875 C 16.523438 -1.796875 15.546875 -1.019531 14.328125 -0.46875 C 13.117188 0.0703125 11.765625 0.34375 10.265625 0.34375 Z M 10.265625 0.34375 "/></g></g></g><g fill="#286c50" fill-opacity="1"><g transform="translate(237.59564, 254.40492)"><g><path d="M 6.78125 0.34375 C 4.976562 0.34375 3.566406 -0.144531 2.546875 -1.125 C 1.535156 -2.113281 1.03125 -3.5 1.03125 -5.28125 C 1.03125 -7.21875 1.660156 -8.691406 2.921875 -9.703125 C 4.179688 -10.722656 6.007812 -11.242188 8.40625 -11.265625 L 12.4375 -11.328125 L 12.4375 -12.28125 C 12.4375 -13.5 12.222656 -14.40625 11.796875 -15 C 11.367188 -15.59375 10.671875 -15.890625 9.703125 -15.890625 C 8.804688 -15.890625 8.144531 -15.6875 7.71875 -15.28125 C 7.300781 -14.875 7.039062 -14.195312 6.9375 -13.25 L 1.875 -13.484375 C 2.1875 -15.304688 3.019531 -16.6875 4.375 -17.625 C 5.726562 -18.5625 7.578125 -19.03125 9.921875 -19.03125 C 12.273438 -19.03125 14.09375 -18.445312 15.375 -17.28125 C 16.65625 -16.125 17.296875 -14.472656 17.296875 -12.328125 L 17.296875 -5.53125 C 17.296875 -4.476562 17.410156 -3.753906 17.640625 -3.359375 C 17.878906 -2.960938 18.273438 -2.765625 18.828125 -2.765625 C 19.191406 -2.765625 19.550781 -2.800781 19.90625 -2.875 L 19.90625 -0.234375 C 19.613281 -0.171875 19.351562 -0.109375 19.125 -0.046875 C 18.894531 0.00390625 18.660156 0.046875 18.421875 0.078125 C 18.191406 0.117188 17.945312 0.148438 17.6875 0.171875 C 17.4375 0.191406 17.140625 0.203125 16.796875 0.203125 C 15.566406 0.203125 14.660156 -0.09375 14.078125 -0.6875 C 13.503906 -1.289062 13.160156 -2.171875 13.046875 -3.328125 L 12.9375 -3.328125 C 11.582031 -0.878906 9.53125 0.34375 6.78125 0.34375 Z M 12.4375 -8.65625 L 9.953125 -8.625 C 8.816406 -8.570312 8.015625 -8.445312 7.546875 -8.25 C 7.078125 -8.050781 6.71875 -7.742188 6.46875 -7.328125 C 6.21875 -6.910156 6.09375 -6.359375 6.09375 -5.671875 C 6.09375 -4.773438 6.296875 -4.113281 6.703125 -3.6875 C 7.117188 -3.257812 7.664062 -3.046875 8.34375 -3.046875 C 9.101562 -3.046875 9.796875 -3.25 10.421875 -3.65625 C 11.046875 -4.070312 11.535156 -4.644531 11.890625 -5.375 C 12.253906 -6.113281 12.4375 -6.890625 12.4375 -7.703125 Z M 12.4375 -8.65625 "/></g></g></g><g fill="#286c50" fill-opacity="1"><g transform="translate(257.265172, 254.40492)"><g><path d="M 7.25 0.3125 C 5.820312 0.3125 4.722656 -0.0703125 3.953125 -0.84375 C 3.179688 -1.625 2.796875 -2.804688 2.796875 -4.390625 L 2.796875 -15.40625 L 0.4375 -15.40625 L 0.4375 -18.6875 L 3.046875 -18.6875 L 4.5625 -23.078125 L 7.59375 -23.078125 L 7.59375 -18.6875 L 11.140625 -18.6875 L 11.140625 -15.40625 L 7.59375 -15.40625 L 7.59375 -5.703125 C 7.59375 -4.785156 7.765625 -4.113281 8.109375 -3.6875 C 8.460938 -3.257812 9 -3.046875 9.71875 -3.046875 C 10.101562 -3.046875 10.644531 -3.125 11.34375 -3.28125 L 11.34375 -0.28125 C 10.144531 0.113281 8.78125 0.3125 7.25 0.3125 Z M 7.25 0.3125 "/></g></g></g><g fill="#286c50" fill-opacity="1"><g transform="translate(269.042721, 254.40492)"><g><path d="M 2.46875 -22.0625 L 2.46875 -25.640625 L 7.328125 -25.640625 L 7.328125 -22.0625 Z M 2.46875 0 L 2.46875 -18.6875 L 7.328125 -18.6875 L 7.328125 0 Z M 2.46875 0 "/></g></g></g><g fill="#286c50" fill-opacity="1"><g transform="translate(278.868869, 254.40492)"><g><path d="M 20.234375 -9.359375 C 20.234375 -6.328125 19.390625 -3.953125 17.703125 -2.234375 C 16.023438 -0.515625 13.695312 0.34375 10.71875 0.34375 C 7.8125 0.34375 5.523438 -0.519531 3.859375 -2.25 C 2.203125 -3.976562 1.375 -6.347656 1.375 -9.359375 C 1.375 -12.367188 2.203125 -14.734375 3.859375 -16.453125 C 5.523438 -18.171875 7.847656 -19.03125 10.828125 -19.03125 C 13.878906 -19.03125 16.207031 -18.195312 17.8125 -16.53125 C 19.425781 -14.875 20.234375 -12.484375 20.234375 -9.359375 Z M 15.140625 -9.359375 C 15.140625 -11.585938 14.773438 -13.203125 14.046875 -14.203125 C 13.328125 -15.203125 12.28125 -15.703125 10.90625 -15.703125 C 7.957031 -15.703125 6.484375 -13.585938 6.484375 -9.359375 C 6.484375 -7.273438 6.84375 -5.6875 7.5625 -4.59375 C 8.28125 -3.507812 9.316406 -2.96875 10.671875 -2.96875 C 13.648438 -2.96875 15.140625 -5.097656 15.140625 -9.359375 Z M 15.140625 -9.359375 "/></g></g></g><g fill="#286c50" fill-opacity="1"><g transform="translate(300.472567, 254.40492)"><g><path d="M 14.578125 0 L 14.578125 -10.484375 C 14.578125 -13.765625 13.46875 -15.40625 11.25 -15.40625 C 10.070312 -15.40625 9.125 -14.898438 8.40625 -13.890625 C 7.6875 -12.890625 7.328125 -11.597656 7.328125 -10.015625 L 7.328125 0 L 2.46875 0 L 2.46875 -14.515625 C 2.46875 -15.515625 2.453125 -16.332031 2.421875 -16.96875 C 2.398438 -17.601562 2.367188 -18.175781 2.328125 -18.6875 L 6.96875 -18.6875 C 7 -18.46875 7.039062 -17.882812 7.09375 -16.9375 C 7.15625 -15.988281 7.1875 -15.332031 7.1875 -14.96875 L 7.25 -14.96875 C 7.90625 -16.40625 8.726562 -17.441406 9.71875 -18.078125 C 10.707031 -18.722656 11.890625 -19.046875 13.265625 -19.046875 C 15.242188 -19.046875 16.765625 -18.4375 17.828125 -17.21875 C 18.890625 -16 19.421875 -14.210938 19.421875 -11.859375 L 19.421875 0 Z M 14.578125 0 "/></g></g></g></svg>